<svg id="Calque_1" data-name="Calque 1" xmlns="http://www.w3.org/2000/svg" viewBox="0 0 1787.57 270.9"><defs><style>.cls-1{fill:#200b08;}</style></defs><title>logo_noir</title><path class="cls-1" d="M641,159.17,542.4,430.07H612l13.32-40.33h83.32l12.56,40.33h69.62l-98.54-270.9Zm3,175,24.35-72.29,22.83,72.29Zm250.35-175H827.76v270.9H1008.1V370.71H894.34Zm159.86,270.9h184.15V370.71H1120.79V323.16h100.44V263.8H1120.79V218.53h117.56V159.17H1054.2Zm240.84,0h66.58V159.17H1295Zm275.84-134.69-86.75-136.21h-58.21v270.9h66.58V293.86l86.75,136.21h58.21V159.17h-66.58Zm315-76.85V159.17H1701.76v270.9h184.15V370.71H1768.34V323.16h100.45V263.8H1768.34V218.53ZM485.2,291.2c8.37-5.71,29.68-22.83,29.68-53.65,0-46.8-30.06-78.38-86.37-78.38H297.26v5.43s19,6,19,28.25v45.81a58.91,58.91,0,0,0,5.57,25.45c6.94,14.49,18.17,23.3,23.72,27.09a88.38,88.38,0,0,0-13.64,9.95,48.87,48.87,0,0,0-15.65,36.12v59.12c0,22.29-19,28.25-19,28.25v5.43h137c48.32,0,84.46-28.16,84.46-79.9C518.68,312.12,496.23,298,485.2,291.2ZM382.85,218.91h41.47c18.27,0,24,11.41,24,22.06s-5.7,22.07-24,22.07H382.85Zm44.9,151.42h-44.9V322.78h44.9c18.26,0,24.35,12.17,24.35,23.58S446,370.33,427.75,370.33Z" transform="translate(-98.34 -159.17)"/><path class="cls-1" d="M140.48,329.94l-3.72-2.11-3.95-1.9a3.5,3.5,0,0,1-1.42-1.53c-.77-2.3,2.2-4.23,16.26-10.83,24.29-11.1,60.5-23.38,91.49-33.38,23.65-7.64,20.82-7.27,25.57-6.58,4.17.75,9,4.28,10.05,7.54.41,1.21-.67,2.5-2.29,3.05a10.44,10.44,0,0,1-1.94.51l-3.95.79c-5.39,1-16.11,4.06-26.67,7.61-8.13,2.72-24.76,8.83-36.74,13.53C192.27,311,178.32,317,167,322c-10.47,4.71-17,7.59-18.4,8C145.39,331.11,142.09,331.15,140.48,329.94Z" transform="translate(-98.34 -159.17)"/><path class="cls-1" d="M197,270.17c.05,3.91-2.44,5.15-6.8,6.75-12.53,4.83-27.34,8.53-38.39,11.69-6.1,1.74-13.82,2.17-18.39,2.4a42.74,42.74,0,0,1-15.7,8.06c-6.1,1.74-16.7,3.34-19.15-5.23-2-7.09,8.43-12.93,15-14.81,4.62-1.32,9.56-1.49,14.32-2.31,6.12-11,8.83-33.37,9.42-45.67,1.2-21.38,1.88-63.3,28.58-70.93,11.05-3.16,21,1.67,24.19,12.88,3.11,10.88-1.39,35.7-4.82,47.38-.34,1.34-2.05,2.19-3.82,2.88-11.19,5.15-12,6.64-13.82,7.16-1.16.33-1.58.09-1.86-.9-.48-1.65.91-3.65,2.09-8.27,2.76-9.7,8.81-32.82,6.45-41.07-.66-2.3-2-5.13-5.3-4.19-8.57,2.45-12.67,19.31-14.17,37.75-1.58,20.07-2.07,41.43-9.25,60.6a63.94,63.94,0,0,0,13.68-2.66A178.54,178.54,0,0,0,196.56,256Z" transform="translate(-98.34 -159.17)"/><path class="cls-1" d="M256.82,216.84a.46.46,0,0,1,.59.52c-1.83,10.27-4.24,25.52-4,26.48.19.65,1,.68,2.31-.16,1.57-1,9.95-11.5,13.06-16.1,1-1.52,1.87-3.37,2.85-3.65,1.47-.42,2.69,2.59,4,7.34.88,3.11.46,6.59-5.71,13.49-5.42,5.8-12.93,14.84-19.47,16.72-5.89,1.68-7.93-1.1-9.14-6.6-3.46,6.48-6.73,11.13-14.26,13.28l-1.85.53c-10.28,2.94-18.7-2.62-22.4-15.55l-.53-1.85c-5.85-20.47,19.19-46.67,38-52,3.92-1.12,9.58-2.38,12.32-2.1A70.52,70.52,0,0,1,256.84,208c.28,1-.07,1.61-.56,1.75a33.08,33.08,0,0,0-13.24.77c-13.09,3.74-29.83,21.17-25.24,37.24l.06.2c1.29,4.54,3.75,6.92,7.14,6,7.94-2.27,15-20.45,17.79-32.43a2.33,2.33,0,0,1,2.15-1.82,18.9,18.9,0,0,0,3.6-.44Z" transform="translate(-98.34 -159.17)"/></svg>