<?xml version="1.0" encoding="utf-8"?>
<!-- Generator: Adobe Illustrator 22.1.0, SVG Export Plug-In . SVG Version: 6.00 Build 0)  -->
<svg version="1.1" id="noir" xmlns="http://www.w3.org/2000/svg" xmlns:xlink="http://www.w3.org/1999/xlink" x="0px" y="0px"
	 viewBox="0 0 590.7 134.2" style="enable-background:new 0 0 590.7 134.2;" xml:space="preserve">
<style type="text/css">
	.st0{fill:#222221;}
</style>
<title>Logo-baseline-noir</title>
<metadata><?xpacket begin="﻿" id="W5M0MpCehiHzreSzNTczkc9d"?>
<x:xmpmeta xmlns:x="adobe:ns:meta/" x:xmptk="Adobe XMP Core 5.6-c143 79.161356, 2017/09/07-01:11:22        ">
   <rdf:RDF xmlns:rdf="http://www.w3.org/1999/02/22-rdf-syntax-ns#">
      <rdf:Description rdf:about=""
            xmlns:dc="http://purl.org/dc/elements/1.1/">
         <dc:title>
            <rdf:Alt>
               <rdf:li xml:lang="x-default">Logo-baseline-noir</rdf:li>
            </rdf:Alt>
         </dc:title>
      </rdf:Description>
   </rdf:RDF>
</x:xmpmeta>
                                                                                                    
                                                                                                    
                                                                                                    
                                                                                                    
                                                                                                    
                                                                                                    
                                                                                                    
                                                                                                    
                                                                                                    
                                                                                                    
                                                                                                    
                                                                                                    
                                                                                                    
                                                                                                    
                                                                                                    
                                                                                                    
                                                                                                    
                                                                                                    
                                                                                                    
                                                                                                    
                           
<?xpacket end="w"?></metadata>
<path class="st0" d="M108.8,69.8H94V54.1h14.8c6,0,8,4,8,7.8S114.8,69.8,108.8,69.8 M94,19.8h13.7c6,0,7.9,3.8,7.9,7.3
	c0,3.5-1.9,7.3-7.9,7.3H94V19.8z M127.8,43.7c2.8-1.9,9.8-7.5,9.8-17.7c0-15.5-9.9-25.9-28.5-25.9H65.7v1.8c3.9,1.4,6.4,5.2,6.3,9.3
	v15.1c0,2.9,0.6,5.8,1.8,8.4c1.8,3.6,4.5,6.7,7.8,9c-1.6,1-3.1,2.1-4.5,3.3C73.9,50,72,54.4,72,58.9v19.5c0.1,4.1-2.4,7.9-6.3,9.3
	v1.8H111c16,0,27.9-9.3,27.9-26.4C138.9,50.6,131.5,45.9,127.8,43.7 M590.7,19.7V0h-60.8v89.5h60.8V69.9h-38.8V54.2H585V34.6h-33.2
	v-15L590.7,19.7z M486.6,45.1l-28.7-45h-19.2v89.5h22v-45l28.7,45h19.2V0h-22V45.1z M395.4,89.6h22V0h-22V89.6z M315.9,89.6h60.9
	V69.9h-38.9V54.2h33.2V34.6h-33.2v-15h38.9V0h-60.9L315.9,89.6z M263,0.1h-22v89.5h59.6V69.9H263V0.1z M180.3,57.8l8-23.9l7.5,23.9
	L180.3,57.8z M179.3,0l-32.6,89.5h23l4.4-13.3h27.5l4.1,13.3h23L196.3,0H179.3z"/>
<path class="st0" d="M13.9,56.4l-1.2-0.7l-1.3-0.6c-0.2-0.1-0.4-0.3-0.5-0.5c-0.2-0.8,0.7-1.4,5.4-3.6c8-3.7,20-7.7,30.2-11
	c7.8-2.5,6.9-2.4,8.5-2.2c1.4,0.3,2.6,1.2,3.3,2.5c0.1,0.4-0.2,0.8-0.8,1c-0.2,0.1-0.4,0.1-0.6,0.2l-1.3,0.3c-3,0.7-5.9,1.5-8.8,2.5
	c-2.7,0.9-8.2,2.9-12.1,4.5c-3.6,1.4-8.2,3.4-11.9,5.1c-3.5,1.6-5.6,2.5-6.1,2.7C15.8,56.9,14.8,56.9,13.9,56.4"/>
<path class="st0" d="M32.6,36.7c0,1.3-0.8,1.7-2.2,2.2c-4.1,1.6-9,2.8-12.7,3.9c-2,0.5-4,0.7-6.1,0.8c-1.5,1.2-3.3,2.1-5.2,2.7
	c-2,0.6-5.5,1.1-6.3-1.7c-0.7-2.3,2.8-4.3,5-4.9c1.6-0.3,3.1-0.6,4.7-0.8c2-3.6,2.9-11,3.1-15.1c0.4-7.1,0.6-20.9,9.4-23.4
	c3.6-1,6.9,0.6,8,4.2s-0.5,11.8-1.6,15.7c-0.1,0.4-0.7,0.7-1.3,0.9c-3.7,1.7-4,2.2-4.6,2.4c-0.4,0.1-0.5,0-0.6-0.3
	c-0.1-0.5,0.3-1.2,0.7-2.7c0.9-3.2,2.9-10.9,2.1-13.6c-0.2-0.8-0.7-1.7-1.8-1.4c-2.8,0.8-4.2,6.4-4.7,12.5c-0.5,6.6-0.7,13.7-3.1,20
	c1.5-0.1,3.1-0.4,4.5-0.9c4.3-1.2,8.4-3,12.3-5.1L32.6,36.7z"/>
<path class="st0" d="M52.4,19.1c0.1,0,0.2,0,0.2,0.1c0,0,0,0,0,0.1c-0.6,3.4-1.4,8.4-1.3,8.7s0.3,0.2,0.8,0c1.6-1.7,3-3.4,4.3-5.3
	c0.3-0.5,0.6-1.1,0.9-1.2c0.5-0.1,0.9,0.9,1.3,2.4c0.3,1,0.1,2.2-1.9,4.5c-1.8,1.9-4.3,4.9-6.4,5.5c-1.9,0.6-2.6-0.4-3-2.2
	c-1.1,2.1-2.2,3.7-4.7,4.4L42,36.2c-3.4,1-6.2-0.9-7.4-5.1l-0.2-0.6C32.5,23.7,40.7,15,47,13.2c1.3-0.4,2.7-0.7,4.1-0.7
	c0.6,1.2,1,2.4,1.4,3.6c0.1,0.3,0,0.5-0.2,0.6c-1.5-0.2-3-0.1-4.4,0.3c-4.3,1.2-9.9,7-8.3,12.3v0.1c0.4,1.5,1.2,2.3,2.4,2
	c2.6-0.8,5-6.8,5.9-10.7c0.1-0.3,0.4-0.6,0.7-0.6c0.4,0,0.8-0.1,1.2-0.1L52.4,19.1z"/>
<path class="st0" d="M454.6,125.7c0.1,0.8,0.3,1.6,0.7,2.3c-0.7,1.1-1.9,1.8-3.2,1.9c-1.7,0-2.8-0.8-2.8-3.2c0-4.7,3.5-8,5.8-8
	c1.1-0.2,2.1,0.6,2.3,1.7c0,0.1,0,0.2,0,0.3C457.3,121.9,454.6,122.4,454.6,125.7 M481.3,108.9H479c1-2.6,3-7.1,3-8.4
	s-0.4-2.2-1.4-2.2c-3,0-5.1,7-5.7,9.2l-0.4,1.4h-3.3c-0.9,0-1.6,1.1-1.6,2.8c0,0.6,0.2,0.9,0.6,0.9h2.8l-1.8,4.7
	c-0.6,1.5-5,6.1-7,7.7l0,0.1c-0.2,0-1.4,1.3-2.7,1.3c-0.3,0-0.6,0-0.8-0.1c0.3-0.7,0.5-1.3,0.6-2c-0.1-0.7-0.2-1.3-0.5-1.9
	c0.8-0.6,1.3-1.6,1.2-2.6c0-3-2.4-5.5-5.4-5.6c-0.1,0-0.1,0-0.2,0c-5.2,0-10.9,3.6-11.9,11.2c-0.2,0.2-0.4,0.5-0.8,0.8
	c-1.1,1-4.5,3.2-5,3.2c-0.3,0-0.7-0.1-0.7-0.6c0.1-0.2,0.2-0.5,0.4-0.7c2.3-4.7,4.2-7.9,4.2-9.4c0-1.6-1.3-2.8-2.8-2.9
	c-0.1,0-0.2,0-0.2,0c-0.9,0-1.9,0.3-2.5,0.3s-0.5-1.4-0.5-1.8c-0.3-1.2-1.4-2.1-2.6-2.1c-1.7,0.1-3,1.6-2.9,3.3c0,0,0,0,0,0.1
	c0,0.7,0.2,1.4,0.7,1.9c-1.7,2.9-3.8,5.5-6.3,7.7c-1.3,0.9-5.3,4.5-6.4,4.5c-0.3,0-0.6-0.2-0.7-0.5c0,0,0-0.1,0-0.1
	c0-0.9,3.4-9,6.6-16.5h2.8c1.1,0,1.5-1,1.5-2.5c0-0.9-0.2-1.1-0.7-1.1h-2.4c1-2.6,3-7.1,3-8.4s-0.4-2.2-1.4-2.2c-3,0-5.1,7-5.6,9.2
	l-0.4,1.4h-3.3c-0.9,0-1.6,1.1-1.6,2.8c0,0.6,0.2,0.9,0.6,0.9h2.8l-1.8,4.7c-0.6,1.5-5,6.1-7,7.7c-0.1,0.1-0.2,0.1-0.2,0.2
	c-1,0.6-4.3,3.9-5.9,3.9c1.3-1.8,1.7-5.8,1.8-7.5c0-2.6,0-5.4,0-6.1c0-0.9,1.2-1.2,1.2-3.3c0-1.3-0.6-2.5-2.1-2.5
	c-2.5,0-3.5,3.4-3.4,5.6c-2.6,3.8-5.7,7.2-9.3,10.1c0,0,0,0,0,0.1s-0.3,0.3-0.5,0.5c-0.7,0.5-4.2,3.4-5.2,3.4
	c-0.3,0-0.3-0.3-0.3-0.5c0.2-0.8,0.5-1.5,0.8-2.2l4.9-10.8h-4.9c-0.2,0.8-0.6,1.6-0.9,2.3c-0.8,1.5-5.6,5.8-7,7
	c-0.5,0.5-0.6,0.9-0.6,2.4s0,2.1,0.4,2.1c0.9-0.6,1.8-1.3,2.6-2.1l0.1,0.1c-0.4,1.4-1.4,2.9-1.4,4.4s0.8,2.1,2.6,2.1
	c3.6,0,7.8-3.2,9.5-4.5c0,0,0.1,0,0.1,0c0.6,0,7.8-7.8,8.4-7.8c0.1,0,0.2,0.3,0.2,0.7c0,1.1-0.2,2.1-0.4,3.2
	c-0.5,2.4-1.5,4.8-2.8,4.8s-2.2-0.3-3.1-0.3c-0.6,0-1.3,0.2-1.3,1c0,2,1.7,3.1,3.9,3.1c0.5,0,0.9-0.1,1.3-0.4
	c0.7-0.2,1.5-0.3,2.2-0.3c2.8,0,5.4-1.1,8.7-3.9l0.2-0.2c0.5-0.3,1.8-1.6,3.6-3h0.1c-0.9,2.5-1.8,4.9-1.8,5.8c0,1.6,1.5,1.9,2.8,1.9
	c2.5,0,6.9-2.7,8.2-3.6c0.5-0.3,1-0.7,1.4-1.1c1.1-0.7,7-6,8.9-8.7c0.7-1,1-1.4,2-1.4c0.5,0,1,0.1,1,0.4c0,0.6-5.1,9.7-5.1,11.6
	s0.9,2.8,3.2,2.8c2.1,0,6.3-2.2,9.2-4.6c0.5,2.8,3.1,4.8,6,4.6c3.8,0,6.1-1.3,8.5-4.1c0.5,0.3,1,0.4,1.5,0.4c1-0.1,2-0.4,2.9-0.9
	l0,0c0.4,0,1.7-1.5,3.8-3.1h0.1c-0.9,2.5-1.8,4.9-1.8,5.8c0,1.6,1.6,1.9,2.8,1.9c2.5,0,6.9-2.7,8.2-3.6c2.2-1.5,2.4-2.1,2.4-3.7
	c0-1.4-0.2-2-0.6-2s-5.5,4.8-6.8,4.8c-0.3,0-0.6-0.2-0.7-0.5c0-0.1,0-0.1,0-0.2c0-0.9,3.4-9,6.6-16.5h2.8c1.1,0,1.5-1,1.5-2.5
	c0-0.9-0.2-1.1-0.7-1.1 M392.7,112.7c1.8,0,3.3-1.5,3.3-3.3c0.1-1.4-1-2.5-2.4-2.6c0,0,0,0,0,0c-1.8,0-3.3,1.5-3.3,3.3
	C390.3,111.5,391.3,112.6,392.7,112.7C392.7,112.7,392.7,112.7,392.7,112.7 M372.4,118.9c-0.9-0.3-1.7-0.4-1.7-0.7s0.8-0.4,1.4-0.6
	c5.6-1.4,8.2-6.5,8.2-11.2c0-5-2.4-8.8-7.6-8.8c-4.5,0-8,3.1-10,7.7c-4.2,9.7-8.5,19.3-13.3,28.8h5.6l8.9-20.1
	c1.1-2.6,4.8-11.7,8.3-11.7c2.3,0,3,1.9,3,3.8c0,9.6-9.9,6.6-9.9,12.5c0,5.6,7.5,3.1,7.5,7.2c0,2.3-4,3.3-9.1,3.3
	c-1.2,0-2.2-0.3-3.2-0.3s-2.1,3.5-2.1,4c0,0.8,0.7,0.9,3.3,0.9c9.2,0,16.3-1.4,16.3-8.8C378,122.2,375.3,119.8,372.4,118.9
	 M316,118.8c0.9,0,1.3,0.6,1.3,1.5c0,2.2-5.8,4.2-7.7,4.3C310.4,122.1,313.3,118.8,316,118.8 M340.3,108.7h-2.4c1-2.6,3-7.1,3-8.4
	s-0.4-2.2-1.4-2.2c-3,0-5.1,7-5.6,9.2l-0.4,1.4h-3.3c-0.9,0-1.5,1.1-1.5,2.8c0,0.6,0.2,0.9,0.6,0.9h2.8l-1.8,4.7
	c-0.6,1.5-5,6.1-7,7.7c-0.2,0.2-0.4,0.4-0.6,0.6c-0.2,0.2-0.5,0.5-1,0.9c-1.2,0.9-5.9,4-9.1,4c-1.3,0-2.6-1-2.6-1.8
	c0-0.5,0.4-0.6,1.3-0.6c1.8,0,10.9-3,10.9-8.2c0-3.5-2-4.6-4.6-4.6c-5.4,0-12.8,4.5-12.8,10.4v2.4c0,4.6,2.8,6.3,6.7,6.3
	c4.4,0,8.4-2.3,11-4.4l0.4-0.3c0.6-0.4,1.8-1.6,3.5-3h0.1c-0.9,2.5-1.8,4.9-1.8,5.8c0,1.6,1.6,1.9,2.8,1.9c2.5,0,6.9-2.7,8.2-3.6
	c2.2-1.5,2.4-2.1,2.4-3.7c0-1.4-0.3-2-0.6-2s-5.5,4.8-6.8,4.8c-0.3,0-0.6-0.2-0.7-0.5c0-0.1,0-0.1,0-0.2c0-0.9,3.4-9,6.6-16.5h2.8
	c1.1,0,1.5-1,1.5-2.5C341,108.9,340.8,108.7,340.3,108.7 M227.7,118.9c0.9,0,1.3,0.6,1.3,1.5c0,2.2-5.8,4.2-7.7,4.3
	C222.1,122.2,225,118.9,227.7,118.9 M292.5,125c-0.3,0-0.7,0.5-1.1,0.8c-1.3,1.1-4.6,3.5-5.2,3.5c-0.3,0-0.5-0.2-0.5-0.4
	c0-0.3,1.9-4.4,3.3-7.3h-2.9c-0.5,0-1.1-0.1-1.6-0.3c-1.7,3.3-5.5,8.5-8.2,8.5c-0.8,0-1.4-0.9-1.4-1.8v-1.5c0-4.4,6.1-7.9,10.3-7.9
	c1.4,0,2.7,0.3,3.9,0.9c0.2,0,0.3-0.2,0.3-0.5c0-1.2-0.1-2.4-0.3-3.5c-1.2-0.3-2.5-0.5-3.8-0.4c-5.6,0-14.2,3.5-15.3,10
	c-1.1,0.9-4.8,4-6,4c-0.1,0-0.5-0.1-0.5-0.4c0-1.4,5-9.9,5-11.7c0-0.7-0.8-1.6-2.2-1.6c-2.8,0-4.6,2.4-11.5,8
	c0.4-2.2,2.4-5.2,2.4-6.3c0-1.2-1-1.7-2.4-1.7c-3.3,0-9.5,6.9-11.1,7.7l-0.1-0.1c1-2.5,2.1-4.9,3.3-7.3h-4.6c-0.3,0.7-1,2.5-1.2,2.8
	c-0.9,1.5-5.8,5.9-6.9,6.8c-0.1,0.1-0.1,0.1-0.1,0.2c-0.2,0.2-0.5,0.4-0.8,0.7c-1.2,0.9-5.9,4-9.1,4c-1.3,0-2.6-1-2.6-1.8
	c0-0.5,0.4-0.6,1.3-0.6c1.8,0,10.9-3,10.9-8.2c0-3.5-2-4.6-4.6-4.6c-5.2,0-12.3,4.2-12.7,9.8c-0.2,0-5.3,4.3-6.7,4.3
	c-0.2,0-0.3-0.3-0.3-0.5c0-1.3,5-9.6,5-11.4c0-1.2-0.8-1.9-2.8-1.9c-2.6,0-11.8,8.1-12.3,8.1c-0.1,0-0.3,0-0.3-0.1
	c0-0.3,2.4-5.2,3.5-7.7h-4.4c-0.3,0-0.5,0.3-0.7,1c-0.6,2.5-5.6,6.9-6.2,7.4c-0.3,0.2-0.6,0.5-0.9,0.8c-0.4,0.3-0.7,0.6-1,0.9
	c-0.7,0.5-4.2,3.4-5.2,3.4c-0.3,0-0.3-0.3-0.3-0.5c0.2-0.8,0.4-1.5,0.8-2.2l4.9-10.8H185c-0.2,0.8-0.6,1.6-0.9,2.3
	c-0.8,1.5-5.6,5.8-7,7c-0.5,0.5-0.6,0.9-0.6,2.4s0,2.1,0.4,2.1c0.9-0.6,1.8-1.3,2.6-2.1l0.1,0.1c-0.4,1.4-1.4,2.9-1.4,4.4
	s0.8,2.1,2.6,2.1c3.5,0,7.6-3.1,9.4-4.5l0,0c0.8-0.5,1.5-1.1,2.2-1.7h0.1c-0.5,1.1-1.6,3.6-1.6,4.8c0,0.8,0.7,1.5,1.5,1.5
	c0,0,0,0,0,0c1.6,0,3.3-2,7.3-5.3c1.5-1.1,7.4-6.3,8-6.3c0,0,0.1,0.1,0.1,0.2c0,0.6-3.9,7.6-3.9,9.3c0,1.5,1.2,2.1,3,2.1
	c2.5,0,8.3-3.5,9.8-5l0,0c0.5,3.6,3.1,5,6.6,5c4.4,0,8.4-2.3,11-4.4c0.2-0.2,0.4-0.4,0.5-0.6c0.5-0.5,1.1-0.9,1.6-1.3l0.1,0.1
	c-0.2,0.6-1.6,3.7-1.6,4.7s0.6,1.5,1.9,1.5c1.6,0,4.2-3.8,5.9-5.1c0.6-0.5,7.5-7,7.7-7s0.1,0.2,0.1,0.3c0,0.6-4.2,8.3-4.2,10.2
	c0,0.8,0.6,1.5,1.4,1.6c0,0,0.1,0,0.1,0c1.8,0,3.2-2,7.2-5.9c2.1-2,6.2-5.9,6.5-5.9c0.1,0,0.1,0.1,0.1,0.2c0,0.7-3.9,7.9-3.9,9.3
	c0.1,1.2,1.1,2.2,2.4,2.2c3.5,0,8.9-3.8,10.1-4.8c0.5,3.1,2.2,4.8,4.6,4.8h1c2.4,0,3.7-1.1,5.3-2.7c-0.1,1.7,0.3,2.7,2.1,2.7
	c2.1,0,5-2,7.1-3.3c2.4-1.5,2.8-2.5,2.8-3.5c0-1.5-0.1-2.5-0.6-2.5 M232,107.4l4-4.6h-5.3l-0.5,1c-0.9,1.6-2.6,4.6-4,6.8l-0.6,1h2.5
	C229.2,111.7,231.2,108.3,232,107.4 M189.3,112.6c1.8-0.1,3.3-1.5,3.3-3.3c0.1-1.4-1-2.5-2.4-2.6c0,0,0,0,0,0
	c-1.8,0-3.3,1.5-3.3,3.3C186.9,111.4,187.9,112.6,189.3,112.6C189.3,112.6,189.3,112.6,189.3,112.6 M165.6,114.3
	c-1.5,0.7-2,3.7-2,5.1c0,0.3,0.2,0.6,0.5,0.7c0,0,0.1,0,0.1,0c2.9,0,15.8-6.5,15.8-16.1c0-4-3-6.4-7.5-6.4
	c-10,0-23.4,14.3-23.4,26.3c0,5.5,3.7,10.1,11.2,10.1c8.9,0,13.5-6.8,13.5-8.4c0-0.7-1.5-1.5-2.6-1.9l-1-0.4l-0.8,1.1
	c-1.7,2.3-4.3,5-9,5c-3.4,0.2-6.2-2.4-6.4-5.8c0-0.2,0-0.4,0-0.7c0-7,10.6-20.7,18-20.7c1.7,0,2.9,0.5,2.9,2.3
	C175,108.4,169.6,112.5,165.6,114.3"/>
</svg>
